Patient4_TMGait_0pt7_02_left_11_EMG.mot
version=1
nRows=16
nColumns=33
inDegrees=no
endheader
time	1LAddLong	2LGlutMax	3LGlutMed	4LIliopsoas	5LSemiMemb	6LBicFemLong	7LRecFem	8LVastMed	9LVastLat	10LGasMed	11LTibAnt	12lTibPost	13LPeroneusLong	14LSol	15LExtDigLong	16LFlexDigLong	17RAddLong	18RGlutMax	19RGlutMed	20RIliopsoas	21RSemiMemb	22RBicFemLong	23RRecFem	24RVastMed	25RVastLat	26RGasMed	27RTibAnt	28RTibPost	29RPeroneusLong	30RSol	31RExtDigLong	32RFlexDigLong
12.627	0.028229	0.8081	0.096893	0.023651	-0.12054	0.045471	0.26352	0.041199	-0.15381	-0.12512	0.01236	-0.005341	-0.224	0.065765	-0.10223	0.059052	0.072632	-0.029602	-0.082703	0.14481	-0.030212	0.083923	0.80795	-0.35507	-0.085297	0.006104	-0.26947	-0.003662	0.14435	-0.019379	-0.001831	0.000458
12.628	0.00946	0.76599	0.12207	0.013275	-0.16052	0.15121	0.11887	0.027771	-0.13534	-0.083618	0.052643	-0.001831	0.042572	-0.069122	0.046997	0.077667	0.074768	-0.046387	-0.058289	0.059814	-0.008087	0.022736	0.72937	-0.28702	-0.078125	-0.002136	-0.47897	-0.010681	0.063171	0.030518	-0.002136	-0.000305
12.629	-0.010986	0.7544	0.048828	-0.018311	-0.13855	0.19516	-0.042572	0.007477	-0.17914	-0.050354	0.011444	-0.001831	1.1705	-0.18127	0.0177	0.069122	0.064392	-0.031891	0.1915	0.060425	-0.010223	-0.02182	0.69458	-0.29205	-0.061188	-0.012054	-0.23224	-0.009613	0.046844	-0.004578	-0.000153	0.001678
12.63	-0.016785	0.70374	-0.007629	0.014801	-0.14618	0.21576	-0.18677	-0.025482	-0.25879	0.001984	-0.00473	0.002594	0.38864	-0.16113	0.08194	0.058136	0.087433	-0.023499	-0.066376	0.09079	0.027771	-0.061951	0.72479	-0.32028	-0.075531	-0.00473	-0.014954	-0.001984	0.012054	-0.020294	0	0.003204
12.631	-0.002136	0.62775	-0.056305	-0.003815	-0.18341	0.29694	-0.16373	0.001526	-0.3154	0.016479	0.064392	0.009613	-0.72296	-0.097351	0.18188	0.054321	0.13077	-0.033264	-0.11795	0.11566	0.052795	-0.075684	0.80032	-0.27313	-0.075531	-0.001984	0.052795	-0.007172	-0.049438	0.001526	-0.003204	-0.000305
12.632	0.017853	0.62531	-0.010834	-0.014954	-0.22476	0.27588	-0.22919	0.044556	-0.45212	-0.025024	0.01297	0.010071	-0.80505	-0.082245	0.06424	0.046082	0.10346	-0.054932	-0.22049	0.12802	0.088196	-0.081787	0.80994	-0.24826	-0.081024	-0.007935	0.08316	-0.010529	-0.07309	0.008392	0.000763	0.00351
12.633	0.049896	0.5867	-0.076752	0.013885	-0.1062	0.15442	-0.33829	0.052948	-0.47699	-0.050049	-0.014191	0.014191	-0.16449	-0.085602	0.000763	0.060577	0.078125	-0.045471	-0.10178	0.090637	0.097198	-0.065308	0.80307	-0.28	-0.069427	-0.011902	0.121	-0.008545	-0.079498	0.024261	0.000916	-0.002899
12.634	0.054779	0.54535	-0.028992	0.013275	0.074158	0.041809	-0.22125	0.023041	-0.37705	-0.005188	0.00351	0.01709	-0.42374	-0.095215	-0.025635	0.042572	0.027161	-0.014954	0.079346	0.097504	0.093842	-0.061035	0.79453	-0.31174	-0.057373	-0.008392	0.077515	-0.013275	-0.086517	0.031738	-0.00473	0.004578
12.635	0.061493	0.43243	-0.004883	-0.014496	0.13351	0.019684	-0.11368	0.01236	-0.37628	-0.030212	0.010834	0.030975	-0.20538	-0.10513	-0.11948	0.041046	0.047913	-0.058289	-0.18906	0.052643	0.089111	-0.027313	0.85419	-0.26733	-0.06485	-0.007019	-0.000153	-0.013428	-0.070496	0.055695	-0.003662	0.002747
12.636	0.04303	0.43213	-0.1236	-0.019226	0.068054	0.16052	-0.13031	0.005188	-0.35461	-0.053406	0.020905	0.029755	0.19241	-0.23529	-0.15228	0.031891	0.023041	-0.069427	-0.36133	0.061951	0.045319	-0.0354	0.73883	-0.18143	-0.046844	0.024414	-0.018921	-0.012207	-0.13443	0.12375	-0.008698	0.001221
12.637	0.023651	0.44571	-0.09201	-0.002289	-0.001526	0.39246	-0.31204	-0.021515	-0.24139	-0.0354	0.00061	0.025787	1.0336	-0.21545	-0.11887	0.020599	0.019531	-0.038147	-0.46707	0.11185	0.05188	-0.001526	0.76752	-0.12238	-0.055389	0.036926	-0.017242	-0.013733	-0.27817	0.1384	-0.003052	-0.002747
12.638	0.024261	0.53009	0.036163	0.010376	-0.062561	0.19104	-0.439	-0.032043	-0.10223	0.000305	-0.009766	0.029297	0.60867	-0.10468	0.019836	0.032043	0.043793	-0.034485	-0.37064	0.1001	0.050659	0.063629	0.75409	-0.028229	-0.05661	0.021973	-0.011292	-0.011292	-0.33646	0.11581	-0.003662	-0.003357
12.639	0.034637	0.50186	0.12451	-0.019379	-0.14221	-0.34866	-0.48325	-0.028229	-0.00824	0.004425	-0.000916	0.045013	-0.34424	-0.068512	0.19806	0.014191	0.053558	-0.033417	-0.25986	0.046844	0.047455	0.037537	0.75653	-0.038452	-0.040894	0.010223	0.003357	-0.012054	-0.19394	0.058746	-0.000916	0.001373
12.64	0.040894	0.56519	0.16647	-0.005188	-0.1329	-0.10147	-0.47745	-0.016937	0.024872	0.029144	-0.000916	0.038452	-0.29495	-0.085907	0.10544	0.019989	0.036316	-0.042572	-0.39734	0.11383	0.028076	0.043488	0.81711	-0.036774	-0.043945	-0.001831	0.019226	-0.005035	-0.063324	-0.020905	-0.000916	-0.001678
12.641	0.037537	0.58579	-0.027008	0.012207	-0.05661	0.10895	-0.48294	-0.010529	0.049744	-0.000305	-0.001678	0.057678	0.30334	0.02594	-0.067749	0.013123	0.02243	-0.052185	-0.41763	0.11551	0.037537	0.029449	0.97992	0.057068	-0.02243	0.002136	0.036469	-0.008392	-0.10834	-0.11337	-0.000305	-0.003204
12.642	0.033722	0.62378	-0.009308	0.011139	-0.07309	0.20203	-0.42969	-0.02121	0.068817	0.013275	0.003052	0.037689	-0.31784	0.05661	0.059357	0.000153	0.050812	-0.067291	-0.35996	0.007019	0.030212	0.010986	1.1351	0.027466	-0.013885	0.007782	0.027618	-0.005798	-0.065002	-0.13046	-0.002136	-0.007324
